<svg width="93" height="29" viewBox="0 0 93 29" fill="none" xmlns="http://www.w3.org/2000/svg">
<g clip-path="url(#clip0_1_4)">
<path d="M6.20173 27.5217V10.7217H14.7937C17.0017 10.7217 18.6497 11.1297 19.7377 11.9457C20.8257 12.7457 21.3697 13.8017 21.3697 15.1137C21.3697 15.9777 21.1377 16.7377 20.6737 17.3937C20.2257 18.0337 19.5857 18.5457 18.7537 18.9297C17.9377 19.2977 16.9617 19.4817 15.8257 19.4817L16.3057 18.3297C17.4897 18.3297 18.5217 18.5137 19.4017 18.8817C20.2817 19.2337 20.9617 19.7537 21.4417 20.4417C21.9377 21.1137 22.1857 21.9377 22.1857 22.9137C22.1857 24.3697 21.5937 25.5057 20.4097 26.3217C19.2417 27.1217 17.5297 27.5217 15.2737 27.5217H6.20173ZM10.9057 24.0897H14.8897C15.7057 24.0897 16.3217 23.9537 16.7377 23.6817C17.1697 23.3937 17.3857 22.9617 17.3857 22.3857C17.3857 21.8097 17.1697 21.3857 16.7377 21.1137C16.3217 20.8257 15.7057 20.6817 14.8897 20.6817H10.5697V17.3937H14.1697C14.9697 17.3937 15.5697 17.2577 15.9697 16.9857C16.3697 16.7137 16.5697 16.3057 16.5697 15.7617C16.5697 15.2177 16.3697 14.8177 15.9697 14.5617C15.5697 14.2897 14.9697 14.1537 14.1697 14.1537H10.9057V24.0897ZM24.647 27.5217V10.7217H29.399V23.7537H37.415V27.5217H24.647Z" fill="#2A1B12"/>
<line x1="1.89469" y1="28.1235" x2="1.89469" y2="7.91301" stroke="#2A1B12" stroke-width="3.78947"/>
<line y1="1.13031" x2="14.6957" y2="1.13031" stroke="#2A1B12" stroke-width="2.26087"/>
<line y1="6.10526" x2="24" y2="6.10526" stroke="#2A1B12" stroke-width="3.78947"/>
</g>
<defs>
<clipPath id="clip0_1_4">
<rect width="93" height="29" fill="white"/>
</clipPath>
</defs>
</svg>
